<?xml version="1.0" encoding="UTF-8" standalone="no"?>
<svg
   xmlns:dc="http://purl.org/dc/elements/1.1/"
   xmlns:cc="http://creativecommons.org/ns#"
   xmlns:rdf="http://www.w3.org/1999/02/22-rdf-syntax-ns#"
   xmlns:svg="http://www.w3.org/2000/svg"
   xmlns="http://www.w3.org/2000/svg"
   xmlns:sodipodi="http://sodipodi.sourceforge.net/DTD/sodipodi-0.dtd"
   xmlns:inkscape="http://www.inkscape.org/namespaces/inkscape"
   width="797"
   height="124"
   viewBox="0 0 797 124"
   version="1.1"
   id="svg440"
   sodipodi:docname="tvh60.svg"
   inkscape:version="0.92.5 (2060ec1f9f, 2020-04-08)">
  <metadata
     id="metadata446">
    <rdf:RDF>
      <cc:Work
         rdf:about="">
        <dc:format>image/svg+xml</dc:format>
        <dc:type
           rdf:resource="http://purl.org/dc/dcmitype/StillImage" />
        <dc:title>Produce by Acme CAD Converter</dc:title>
      </cc:Work>
    </rdf:RDF>
  </metadata>
  <defs
     id="defs444" />
  <sodipodi:namedview
     pagecolor="#ffffff"
     bordercolor="#666666"
     borderopacity="1"
     objecttolerance="10"
     gridtolerance="10"
     guidetolerance="10"
     inkscape:pageopacity="0"
     inkscape:pageshadow="2"
     inkscape:window-width="1920"
     inkscape:window-height="1028"
     id="namedview442"
     showgrid="false"
     inkscape:zoom="1.1125147"
     inkscape:cx="439.79582"
     inkscape:cy="31.156695"
     inkscape:window-x="0"
     inkscape:window-y="26"
     inkscape:window-maximized="1"
     inkscape:current-layer="svg440" />
  <title
     id="title2">Produce by Acme CAD Converter</title>
  <desc
     id="desc4">Produce by Acme CAD Converter</desc>
  <polyline
     points="1.78,279.4 1.78,238.21"
     style="fill:none;stroke:#c0c0c0;stroke-width:0.5"
     id="polyline6"
     transform="translate(-1.394837,-238.08179)" />
  <polyline
     points="29.24,279.4 29.24,238.21"
     style="fill:none;stroke:#c0c0c0;stroke-width:0.5"
     id="polyline8"
     transform="translate(-1.394837,-238.08179)" />
  <polyline
     points="56.7,279.4 56.7,238.21"
     style="fill:none;stroke:#c0c0c0;stroke-width:0.5"
     id="polyline10"
     transform="translate(-1.394837,-238.08179)" />
  <polyline
     points="84.17,279.4 84.17,238.21"
     style="fill:none;stroke:#c0c0c0;stroke-width:0.5"
     id="polyline12"
     transform="translate(-1.394837,-238.08179)" />
  <polyline
     points="111.63,279.4 111.63,238.21"
     style="fill:none;stroke:#c0c0c0;stroke-width:0.5"
     id="polyline14"
     transform="translate(-1.394837,-238.08179)" />
  <polyline
     points="139.1,279.4 139.1,238.21"
     style="fill:none;stroke:#c0c0c0;stroke-width:0.5"
     id="polyline16"
     transform="translate(-1.394837,-238.08179)" />
  <polyline
     points="166.56,279.4 166.56,238.21"
     style="fill:none;stroke:#c0c0c0;stroke-width:0.5"
     id="polyline18"
     transform="translate(-1.394837,-238.08179)" />
  <polyline
     points="1.78,279.4 798.22,279.4"
     style="fill:none;stroke:#c0c0c0;stroke-width:0.5"
     id="polyline20"
     transform="translate(-1.394837,-238.08179)" />
  <polyline
     points="12.76,271.85 12.59,272.91 12.11,273.87 11.35,274.63 10.39,275.12 9.33,275.28 8.27,275.12 7.31,274.63 6.55,273.87 6.06,272.91 5.9,271.85 5.9,259.49 5.9,259.49 6.06,258.43 6.55,257.48 7.31,256.72 8.27,256.23 9.33,256.06 10.39,256.23 11.35,256.72 12.11,257.48 12.59,258.43 12.76,259.49 12.76,271.85"
     style="fill:none;stroke:#000000;stroke-width:0.5"
     id="polyline22"
     transform="translate(-1.394837,-238.08179)" />
  <polyline
     points="16.88,259.49 16.69,257.81 16.13,256.22 15.23,254.78 14.04,253.59 12.61,252.69 11.01,252.13 9.33,251.94 7.65,252.13 6.05,252.69 4.62,253.59 3.42,254.78 2.53,256.22 1.97,257.81 1.78,259.49 1.78,271.85 1.78,271.85 1.97,273.53 2.53,275.13 3.42,276.56 4.62,277.76 6.05,278.66 7.65,279.21 9.33,279.4 11.01,279.21 12.61,278.66 14.04,277.76 15.23,276.56 16.13,275.13 16.69,273.53 16.88,271.85 16.88,259.49"
     style="fill:none;stroke:#000000;stroke-width:0.5"
     id="polyline24"
     transform="translate(-1.394837,-238.08179)" />
  <polyline
     points="29.24,255.98 30.37,255.24 31.34,254.3 32.1,253.18 32.63,251.94 36.79,251.94 36.79,279.4 32.67,279.4 32.67,258.26 29.66,258.81 29.24,255.98"
     style="fill:none;stroke:#000000;stroke-width:0.5"
     id="polyline26"
     transform="translate(-1.394837,-238.08179)" />
  <polyline
     points="56.7,259.49 56.7,260.87 60.85,260.87 60.85,259.89 60.85,259.89 60.9,258.78 61.3,257.74 62.02,256.89 62.96,256.31 64.05,256.07 65.15,256.18 66.16,256.64 66.98,257.4 67.5,258.38 67.69,259.47 67.52,260.57 67,261.55 56.7,275.28 56.7,279.4 71.81,279.4 71.81,275.28 61.85,275.28 70.3,264.02 70.3,264.02 71.15,262.58 71.66,260.98 71.81,259.31 71.58,257.65 70.99,256.07 70.07,254.67 68.86,253.51 67.43,252.64 65.83,252.11 64.16,251.94 62.5,252.15 60.92,252.72 59.51,253.62 58.33,254.82 57.44,256.24 56.89,257.83 56.7,259.49"
     style="fill:none;stroke:#000000;stroke-width:0.5"
     id="polyline28"
     transform="translate(-1.394837,-238.08179)" />
  <polyline
     points="194.02,279.4 194.02,238.21"
     style="fill:none;stroke:#c0c0c0;stroke-width:0.5"
     id="polyline30"
     transform="translate(-1.394837,-238.08179)" />
  <polyline
     points="221.49,279.4 221.49,238.21"
     style="fill:none;stroke:#c0c0c0;stroke-width:0.5"
     id="polyline32"
     transform="translate(-1.394837,-238.08179)" />
  <polyline
     points="248.95,279.4 248.95,238.21"
     style="fill:none;stroke:#c0c0c0;stroke-width:0.5"
     id="polyline34"
     transform="translate(-1.394837,-238.08179)" />
  <polyline
     points="276.41,279.4 276.41,238.21"
     style="fill:none;stroke:#c0c0c0;stroke-width:0.5"
     id="polyline36"
     transform="translate(-1.394837,-238.08179)" />
  <polyline
     points="303.88,279.4 303.88,238.21"
     style="fill:none;stroke:#c0c0c0;stroke-width:0.5"
     id="polyline38"
     transform="translate(-1.394837,-238.08179)" />
  <polyline
     points="331.34,279.4 331.34,238.21"
     style="fill:none;stroke:#c0c0c0;stroke-width:0.5"
     id="polyline40"
     transform="translate(-1.394837,-238.08179)" />
  <polyline
     points="358.8,279.4 358.8,238.21"
     style="fill:none;stroke:#c0c0c0;stroke-width:0.5"
     id="polyline42"
     transform="translate(-1.394837,-238.08179)" />
  <polyline
     points="386.27,279.4 386.27,238.21"
     style="fill:none;stroke:#c0c0c0;stroke-width:0.5"
     id="polyline44"
     transform="translate(-1.394837,-238.08179)" />
  <polyline
     points="99.27,271.85 99.27,269.93 99.27,269.93 99.12,268.4 98.65,266.93 97.9,265.59 96.89,264.42 96.89,264.42 97.81,263.07 98.39,261.53 98.59,259.91 98.59,258.81 98.59,258.81 98.41,257.28 97.91,255.83 97.09,254.53 96,253.44 94.7,252.62 93.25,252.11 91.72,251.94 90.19,252.11 88.74,252.62 87.44,253.44 86.35,254.53 85.53,255.83 85.03,257.28 84.85,258.81 88.97,258.81 88.97,258.81 89.14,257.87 89.62,257.04 90.35,256.43 91.24,256.1 92.2,256.1 93.09,256.43 93.82,257.04 94.3,257.87 94.47,258.81 94.47,259.91 94.47,259.91 94.33,260.75 93.94,261.52 93.33,262.13 92.57,262.52 91.72,262.65 90.62,262.65 90.62,266.5 91.72,266.5 91.72,266.5 92.78,266.66 93.74,267.15 94.5,267.91 94.99,268.87 95.15,269.93 95.15,271.85 95.15,271.85 94.99,272.91 94.5,273.87 93.74,274.63 92.78,275.12 91.72,275.28 90.66,275.12 89.7,274.63 88.94,273.87 88.46,272.91 88.29,271.85 84.17,271.85 84.17,271.85 84.36,273.53 84.92,275.13 85.82,276.56 87.01,277.76 88.44,278.66 90.04,279.21 91.72,279.4 93.4,279.21 95,278.66 96.43,277.76 97.63,276.56 98.53,275.13 99.08,273.53 99.27,271.85"
     style="fill:none;stroke:#000000;stroke-width:0.5"
     id="polyline46"
     transform="translate(-1.394837,-238.08179)" />
  <polyline
     points="121.8,269.76 116.38,269.76 121.8,260.24 121.8,269.76"
     style="fill:none;stroke:#000000;stroke-width:0.5"
     id="polyline48"
     transform="translate(-1.394837,-238.08179)" />
  <polyline
     points="125.92,251.91 121.8,251.91 111.64,269.76 111.64,273.88 121.8,273.88 121.8,279.38 125.92,279.38 125.92,273.88 128.12,273.88 128.12,269.76 125.92,269.76 125.92,251.91"
     style="fill:none;stroke:#000000;stroke-width:0.5"
     id="polyline50"
     transform="translate(-1.394837,-238.08179)" />
  <polyline
     points="143.61,261.92 144.2,256.06 151.73,256.06 151.45,251.94 140.47,251.94 139.1,265.67 143.9,266.77 143.9,266.77 144.67,266.03 145.62,265.55 146.68,265.4 147.73,265.57 148.68,266.07 149.43,266.82 149.91,267.78 150.08,268.83 150.08,271.85 150.08,271.85 149.91,272.91 149.43,273.87 148.67,274.63 147.71,275.12 146.65,275.28 145.59,275.12 144.63,274.63 143.87,273.87 143.38,272.91 143.21,271.85 139.1,271.85 139.1,271.85 139.28,273.53 139.84,275.13 140.74,276.56 141.94,277.76 143.37,278.66 144.97,279.21 146.65,279.4 148.33,279.21 149.92,278.66 151.36,277.76 152.55,276.56 153.45,275.13 154.01,273.53 154.2,271.85 154.2,268.83 154.2,268.83 154.02,267.18 153.48,265.61 152.61,264.19 151.45,263 150.06,262.09 148.5,261.51 146.85,261.28 145.2,261.42 143.61,261.92"
     style="fill:none;stroke:#000000;stroke-width:0.5"
     id="polyline52"
     transform="translate(-1.394837,-238.08179)" />
  <polyline
     points="177.66,272.14 177.66,270.74 177.66,270.74 177.47,269.68 176.97,268.73 176.2,267.98 175.24,267.5 174.18,267.33 173.12,267.5 172.16,267.98 171.39,268.73 170.89,269.68 170.7,270.74 170.7,272.14 170.7,272.14 171,273.24 171.63,274.19 172.53,274.88 173.61,275.25 174.75,275.25 175.83,274.88 176.73,274.19 177.36,273.24 177.66,272.14"
     style="fill:none;stroke:#000000;stroke-width:0.5"
     id="polyline54"
     transform="translate(-1.394837,-238.08179)" />
  <polyline
     points="175.35,256.43 178.93,251.93 173.73,251.93 173.73,251.93 172.2,253.86 170.77,255.87 170.77,255.87 169.4,258.11 168.28,260.49 167.42,262.98 166.85,265.54 166.7,267.22 166.57,270.25 166.57,271.65 166.57,271.65 166.72,273.33 167.23,274.93 168.09,276.38 169.25,277.6 170.65,278.54 172.22,279.15 173.88,279.39 175.56,279.25 177.17,278.75 178.63,277.91 179.86,276.76 180.81,275.37 181.43,273.8 181.68,272.14 181.68,270.74 181.68,270.74 181.5,269.14 180.98,267.61 180.15,266.23 179.04,265.06 177.71,264.15 176.22,263.54 174.63,263.27 173.02,263.33 171.46,263.74 171.46,263.74 172.41,261.13 173.72,258.68 175.35,256.43"
     style="fill:none;stroke:#000000;stroke-width:0.5"
     id="polyline56"
     transform="translate(-1.394837,-238.08179)" />
  <polyline
     points="203.86,264.5 203.98,264.16 204.37,263.25 204.37,263.25 205.36,260.51 206.11,257.7 206.63,254.84 206.89,251.94 194.02,251.94 194.02,256.06 203.09,256.06 203.09,256.06 202.46,258.7 201.6,261.28 200.52,263.78 200.15,264.65 200.15,264.65 199.19,268.22 198.61,271.87 198.42,275.56 198.42,279.4 200.48,279.4 202.54,279.4 202.54,274.19 202.54,274.19 202.68,270.92 203.13,267.68 203.86,264.5"
     style="fill:none;stroke:#000000;stroke-width:0.5"
     id="polyline58"
     transform="translate(-1.394837,-238.08179)" />
  <polyline
     points="225.61,271.85 225.77,272.91 226.26,273.87 227.02,274.63 227.98,275.12 229.04,275.28 230.1,275.12 231.06,274.63 231.82,273.87 232.3,272.91 232.47,271.85 232.47,269.93 232.47,269.93 232.3,268.87 231.82,267.91 231.06,267.15 230.1,266.66 229.04,266.5 227.98,266.66 227.02,267.15 226.26,267.91 225.77,268.87 225.61,269.93 225.61,271.85"
     style="fill:none;stroke:#000000;stroke-width:0.5"
     id="polyline60"
     transform="translate(-1.394837,-238.08179)" />
  <polyline
     points="223.87,264.42 222.86,265.59 222.11,266.93 221.64,268.4 221.49,269.93 221.49,271.85 221.49,271.85 221.68,273.53 222.23,275.13 223.13,276.56 224.33,277.76 225.76,278.66 227.36,279.21 229.04,279.4 230.72,279.21 232.32,278.66 233.75,277.76 234.94,276.56 235.84,275.13 236.4,273.53 236.59,271.85 236.59,269.93 236.59,269.93 236.43,268.4 235.97,266.93 235.22,265.59 234.21,264.42 234.21,264.42 235.13,263.07 235.71,261.53 235.9,259.91 235.9,258.81 235.9,258.81 235.73,257.28 235.22,255.83 234.41,254.53 233.32,253.44 232.02,252.62 230.57,252.11 229.04,251.94 227.51,252.11 226.06,252.62 224.76,253.44 223.67,254.53 222.85,255.83 222.35,257.28 222.17,258.81 222.17,259.91 222.17,259.91 222.37,261.53 222.95,263.07 223.87,264.42"
     style="fill:none;stroke:#000000;stroke-width:0.5"
     id="polyline62"
     transform="translate(-1.394837,-238.08179)" />
  <polyline
     points="226.29,258.81 226.29,259.91 226.29,259.91 226.46,260.84 226.93,261.67 227.67,262.28 228.56,262.61 229.52,262.61 230.41,262.28 231.14,261.67 231.62,260.84 231.79,259.91 231.79,258.81 231.79,258.81 231.62,257.87 231.14,257.04 230.41,256.43 229.52,256.1 228.56,256.1 227.67,256.43 226.93,257.04 226.46,257.87 226.29,258.81"
     style="fill:none;stroke:#000000;stroke-width:0.5"
     id="polyline64"
     transform="translate(-1.394837,-238.08179)" />
  <polyline
     points="253,259.19 253,260.59 253,260.59 253.19,261.65 253.69,262.6 254.46,263.35 255.42,263.84 256.48,264 257.55,263.84 258.51,263.35 259.27,262.6 259.78,261.65 259.96,260.59 259.96,259.19 259.96,259.19 259.67,258.09 259.03,257.14 258.13,256.45 257.05,256.09 255.91,256.09 254.84,256.45 253.93,257.14 253.3,258.09 253,259.19"
     style="fill:none;stroke:#000000;stroke-width:0.5"
     id="polyline66"
     transform="translate(-1.394837,-238.08179)" />
  <polyline
     points="264.09,261.08 264.09,259.68 264.09,259.68 263.94,258 263.43,256.4 262.57,254.95 261.41,253.73 260.02,252.79 258.44,252.19 256.78,251.94 255.1,252.08 253.49,252.58 252.04,253.42 250.8,254.57 249.85,255.96 249.24,257.53 248.98,259.19 248.98,260.59 248.98,260.59 249.16,262.19 249.68,263.72 250.52,265.1 251.62,266.27 252.95,267.18 254.45,267.79 256.03,268.06 257.65,268 259.21,267.59 259.21,267.59 258.25,270.2 256.94,272.65 255.31,274.9 251.74,279.4 256.94,279.4 256.94,279.4 258.47,277.47 259.89,275.46 259.89,275.46 261.27,273.22 262.39,270.84 263.24,268.35 263.81,265.79 263.96,264.11 264.09,261.08"
     style="fill:none;stroke:#000000;stroke-width:0.5"
     id="polyline68"
     transform="translate(-1.394837,-238.08179)" />
  <polyline
     points="1.78,320.6 1.78,279.4"
     style="fill:none;stroke:#c0c0c0;stroke-width:0.5"
     id="polyline70"
     transform="translate(-1.394837,-238.08179)" />
  <polyline
     points="29.24,320.6 29.24,279.4"
     style="fill:none;stroke:#c0c0c0;stroke-width:0.5"
     id="polyline72"
     transform="translate(-1.394837,-238.08179)" />
  <polyline
     points="56.7,320.6 56.7,279.4"
     style="fill:none;stroke:#c0c0c0;stroke-width:0.5"
     id="polyline74"
     transform="translate(-1.394837,-238.08179)" />
  <polyline
     points="84.17,320.6 84.17,279.4"
     style="fill:none;stroke:#c0c0c0;stroke-width:0.5"
     id="polyline76"
     transform="translate(-1.394837,-238.08179)" />
  <polyline
     points="111.63,320.6 111.63,279.4"
     style="fill:none;stroke:#c0c0c0;stroke-width:0.5"
     id="polyline78"
     transform="translate(-1.394837,-238.08179)" />
  <polyline
     points="139.1,320.6 139.1,279.4"
     style="fill:none;stroke:#c0c0c0;stroke-width:0.5"
     id="polyline80"
     transform="translate(-1.394837,-238.08179)" />
  <polyline
     points="166.56,320.6 166.56,279.4"
     style="fill:none;stroke:#c0c0c0;stroke-width:0.5"
     id="polyline82"
     transform="translate(-1.394837,-238.08179)" />
  <polyline
     points="1.78,320.6 798.22,320.6"
     style="fill:none;stroke:#c0c0c0;stroke-width:0.5"
     id="polyline84"
     transform="translate(-1.394837,-238.08179)" />
  <polyline
     points="194.02,320.6 194.02,279.4"
     style="fill:none;stroke:#c0c0c0;stroke-width:0.5"
     id="polyline86"
     transform="translate(-1.394837,-238.08179)" />
  <polyline
     points="221.49,320.6 221.49,279.4"
     style="fill:none;stroke:#c0c0c0;stroke-width:0.5"
     id="polyline88"
     transform="translate(-1.394837,-238.08179)" />
  <polyline
     points="248.95,320.6 248.95,279.4"
     style="fill:none;stroke:#c0c0c0;stroke-width:0.5"
     id="polyline90"
     transform="translate(-1.394837,-238.08179)" />
  <polyline
     points="276.41,320.6 276.41,279.4"
     style="fill:none;stroke:#c0c0c0;stroke-width:0.5"
     id="polyline92"
     transform="translate(-1.394837,-238.08179)" />
  <polyline
     points="303.88,320.6 303.88,279.4"
     style="fill:none;stroke:#c0c0c0;stroke-width:0.5"
     id="polyline94"
     transform="translate(-1.394837,-238.08179)" />
  <polyline
     points="331.34,320.6 331.34,279.4"
     style="fill:none;stroke:#c0c0c0;stroke-width:0.5"
     id="polyline96"
     transform="translate(-1.394837,-238.08179)" />
  <polyline
     points="358.8,320.6 358.8,279.4"
     style="fill:none;stroke:#c0c0c0;stroke-width:0.5"
     id="polyline98"
     transform="translate(-1.394837,-238.08179)" />
  <polyline
     points="386.27,320.6 386.27,279.4"
     style="fill:none;stroke:#c0c0c0;stroke-width:0.5"
     id="polyline100"
     transform="translate(-1.394837,-238.08179)" />
  <polyline
     points="1.78,361.8 1.78,320.6"
     style="fill:none;stroke:#c0c0c0;stroke-width:0.5"
     id="polyline102"
     transform="translate(-1.394837,-238.08179)" />
  <polyline
     points="29.24,361.8 29.24,320.6"
     style="fill:none;stroke:#c0c0c0;stroke-width:0.5"
     id="polyline104"
     transform="translate(-1.394837,-238.08179)" />
  <polyline
     points="56.7,361.8 56.7,320.6"
     style="fill:none;stroke:#c0c0c0;stroke-width:0.5"
     id="polyline106"
     transform="translate(-1.394837,-238.08179)" />
  <polyline
     points="84.17,361.8 84.17,320.6"
     style="fill:none;stroke:#c0c0c0;stroke-width:0.5"
     id="polyline108"
     transform="translate(-1.394837,-238.08179)" />
  <polyline
     points="111.63,361.8 111.63,320.6"
     style="fill:none;stroke:#c0c0c0;stroke-width:0.5"
     id="polyline110"
     transform="translate(-1.394837,-238.08179)" />
  <polyline
     points="139.1,361.8 139.1,320.6"
     style="fill:none;stroke:#c0c0c0;stroke-width:0.5"
     id="polyline112"
     transform="translate(-1.394837,-238.08179)" />
  <polyline
     points="166.56,361.8 166.56,320.6"
     style="fill:none;stroke:#c0c0c0;stroke-width:0.5"
     id="polyline114"
     transform="translate(-1.394837,-238.08179)" />
  <polyline
     points="1.78,361.8 798.22,361.8"
     style="fill:none;stroke:#c0c0c0;stroke-width:0.5"
     id="polyline116"
     transform="translate(-1.394837,-238.08179)" />
  <polyline
     points="194.02,361.8 194.02,320.6"
     style="fill:none;stroke:#c0c0c0;stroke-width:0.5"
     id="polyline118"
     transform="translate(-1.394837,-238.08179)" />
  <polyline
     points="221.49,361.8 221.49,320.6"
     style="fill:none;stroke:#c0c0c0;stroke-width:0.5"
     id="polyline120"
     transform="translate(-1.394837,-238.08179)" />
  <polyline
     points="248.95,361.8 248.95,320.6"
     style="fill:none;stroke:#c0c0c0;stroke-width:0.5"
     id="polyline122"
     transform="translate(-1.394837,-238.08179)" />
  <polyline
     points="276.41,361.8 276.41,320.6"
     style="fill:none;stroke:#c0c0c0;stroke-width:0.5"
     id="polyline124"
     transform="translate(-1.394837,-238.08179)" />
  <polyline
     points="303.88,361.8 303.88,320.6"
     style="fill:none;stroke:#c0c0c0;stroke-width:0.5"
     id="polyline126"
     transform="translate(-1.394837,-238.08179)" />
  <polyline
     points="331.34,361.8 331.34,320.6"
     style="fill:none;stroke:#c0c0c0;stroke-width:0.5"
     id="polyline128"
     transform="translate(-1.394837,-238.08179)" />
  <polyline
     points="358.8,361.8 358.8,320.6"
     style="fill:none;stroke:#c0c0c0;stroke-width:0.5"
     id="polyline130"
     transform="translate(-1.394837,-238.08179)" />
  <polyline
     points="386.27,361.8 386.27,320.6"
     style="fill:none;stroke:#c0c0c0;stroke-width:0.5"
     id="polyline132"
     transform="translate(-1.394837,-238.08179)" />
  <polyline
     points="413.73,279.4 413.73,238.21"
     style="fill:none;stroke:#c0c0c0;stroke-width:0.5"
     id="polyline134"
     transform="translate(-1.394837,-238.08179)" />
  <polyline
     points="441.2,279.4 441.2,238.21"
     style="fill:none;stroke:#c0c0c0;stroke-width:0.5"
     id="polyline136"
     transform="translate(-1.394837,-238.08179)" />
  <polyline
     points="468.66,279.4 468.66,238.21"
     style="fill:none;stroke:#c0c0c0;stroke-width:0.5"
     id="polyline138"
     transform="translate(-1.394837,-238.08179)" />
  <polyline
     points="496.12,279.4 496.12,238.21"
     style="fill:none;stroke:#c0c0c0;stroke-width:0.5"
     id="polyline140"
     transform="translate(-1.394837,-238.08179)" />
  <polyline
     points="523.59,279.4 523.59,238.21"
     style="fill:none;stroke:#c0c0c0;stroke-width:0.5"
     id="polyline142"
     transform="translate(-1.394837,-238.08179)" />
  <polyline
     points="551.05,279.4 551.05,238.21"
     style="fill:none;stroke:#c0c0c0;stroke-width:0.5"
     id="polyline144"
     transform="translate(-1.394837,-238.08179)" />
  <polyline
     points="578.51,279.4 578.51,238.21"
     style="fill:none;stroke:#c0c0c0;stroke-width:0.5"
     id="polyline146"
     transform="translate(-1.394837,-238.08179)" />
  <polyline
     points="605.98,279.4 605.98,238.21"
     style="fill:none;stroke:#c0c0c0;stroke-width:0.5"
     id="polyline148"
     transform="translate(-1.394837,-238.08179)" />
  <polyline
     points="743.3,279.4 743.3,238.21"
     style="fill:none;stroke:#c0c0c0;stroke-width:0.5"
     id="polyline150"
     transform="translate(-1.394837,-238.08179)" />
  <polyline
     points="770.76,279.4 770.76,238.21"
     style="fill:none;stroke:#c0c0c0;stroke-width:0.5"
     id="polyline152"
     transform="translate(-1.394837,-238.08179)" />
  <polyline
     points="798.22,279.4 798.22,238.21"
     style="fill:none;stroke:#c0c0c0;stroke-width:0.5"
     id="polyline154"
     transform="translate(-1.394837,-238.08179)" />
  <polyline
     points="413.73,320.6 413.73,279.4"
     style="fill:none;stroke:#c0c0c0;stroke-width:0.5"
     id="polyline156"
     transform="translate(-1.394837,-238.08179)" />
  <polyline
     points="441.2,320.6 441.2,279.4"
     style="fill:none;stroke:#c0c0c0;stroke-width:0.5"
     id="polyline158"
     transform="translate(-1.394837,-238.08179)" />
  <polyline
     points="468.66,320.6 468.66,279.4"
     style="fill:none;stroke:#c0c0c0;stroke-width:0.5"
     id="polyline160"
     transform="translate(-1.394837,-238.08179)" />
  <polyline
     points="496.12,320.6 496.12,279.4"
     style="fill:none;stroke:#c0c0c0;stroke-width:0.5"
     id="polyline162"
     transform="translate(-1.394837,-238.08179)" />
  <polyline
     points="523.59,320.6 523.59,279.4"
     style="fill:none;stroke:#c0c0c0;stroke-width:0.5"
     id="polyline164"
     transform="translate(-1.394837,-238.08179)" />
  <polyline
     points="551.05,320.6 551.05,279.4"
     style="fill:none;stroke:#c0c0c0;stroke-width:0.5"
     id="polyline166"
     transform="translate(-1.394837,-238.08179)" />
  <polyline
     points="578.51,320.6 578.51,279.4"
     style="fill:none;stroke:#c0c0c0;stroke-width:0.5"
     id="polyline168"
     transform="translate(-1.394837,-238.08179)" />
  <polyline
     points="605.98,320.6 605.98,279.4"
     style="fill:none;stroke:#c0c0c0;stroke-width:0.5"
     id="polyline170"
     transform="translate(-1.394837,-238.08179)" />
  <polyline
     points="743.3,320.6 743.3,279.4"
     style="fill:none;stroke:#c0c0c0;stroke-width:0.5"
     id="polyline172"
     transform="translate(-1.394837,-238.08179)" />
  <polyline
     points="770.76,320.6 770.76,279.4"
     style="fill:none;stroke:#c0c0c0;stroke-width:0.5"
     id="polyline174"
     transform="translate(-1.394837,-238.08179)" />
  <polyline
     points="798.22,320.6 798.22,279.4"
     style="fill:none;stroke:#c0c0c0;stroke-width:0.5"
     id="polyline176"
     transform="translate(-1.394837,-238.08179)" />
  <polyline
     points="413.73,361.8 413.73,320.6"
     style="fill:none;stroke:#c0c0c0;stroke-width:0.5"
     id="polyline178"
     transform="translate(-1.394837,-238.08179)" />
  <polyline
     points="441.2,361.8 441.2,320.6"
     style="fill:none;stroke:#c0c0c0;stroke-width:0.5"
     id="polyline180"
     transform="translate(-1.394837,-238.08179)" />
  <polyline
     points="468.66,361.8 468.66,320.6"
     style="fill:none;stroke:#c0c0c0;stroke-width:0.5"
     id="polyline182"
     transform="translate(-1.394837,-238.08179)" />
  <polyline
     points="496.12,361.8 496.12,320.6"
     style="fill:none;stroke:#c0c0c0;stroke-width:0.5"
     id="polyline184"
     transform="translate(-1.394837,-238.08179)" />
  <polyline
     points="523.59,361.8 523.59,320.6"
     style="fill:none;stroke:#c0c0c0;stroke-width:0.5"
     id="polyline186"
     transform="translate(-1.394837,-238.08179)" />
  <polyline
     points="551.05,361.8 551.05,320.6"
     style="fill:none;stroke:#c0c0c0;stroke-width:0.5"
     id="polyline188"
     transform="translate(-1.394837,-238.08179)" />
  <polyline
     points="578.51,361.8 578.51,320.6"
     style="fill:none;stroke:#c0c0c0;stroke-width:0.5"
     id="polyline190"
     transform="translate(-1.394837,-238.08179)" />
  <polyline
     points="605.98,361.8 605.98,320.6"
     style="fill:none;stroke:#c0c0c0;stroke-width:0.5"
     id="polyline192"
     transform="translate(-1.394837,-238.08179)" />
  <polyline
     points="743.3,361.8 743.3,320.6"
     style="fill:none;stroke:#c0c0c0;stroke-width:0.5"
     id="polyline194"
     transform="translate(-1.394837,-238.08179)" />
  <polyline
     points="770.76,361.8 770.76,320.6"
     style="fill:none;stroke:#c0c0c0;stroke-width:0.5"
     id="polyline196"
     transform="translate(-1.394837,-238.08179)" />
  <polyline
     points="798.22,361.8 798.22,320.6"
     style="fill:none;stroke:#c0c0c0;stroke-width:0.5"
     id="polyline198"
     transform="translate(-1.394837,-238.08179)" />
  <polyline
     points="783.36,353.01 777.38,353.01 780.37,342.52 783.36,353.01"
     style="fill:none;stroke:#000000;stroke-width:0.5"
     id="polyline200"
     transform="translate(-1.394837,-238.08179)" />
  <polyline
     points="782.71,334.33 778.04,334.33 770.76,361.8 774.88,361.8 776.21,357.13 784.53,357.13 785.86,361.8 789.98,361.8 782.71,334.33"
     style="fill:none;stroke:#000000;stroke-width:0.5"
     id="polyline202"
     transform="translate(-1.394837,-238.08179)" />
  <polyline
     points="779.27,329.94 779.42,329.39 779.82,328.99 780.37,328.84 780.92,328.99 781.32,329.39 781.47,329.94 781.47,329.94 781.32,330.49 780.92,330.89 780.37,331.04 779.82,330.89 779.42,330.49 779.27,329.94"
     style="fill:none;stroke:#000000;stroke-width:0.5"
     id="polyline204"
     transform="translate(-1.394837,-238.08179)" />
  <polyline
     points="783.53,329.94 783.34,328.86 782.79,327.91 781.95,327.2 780.92,326.83 779.82,326.83 778.79,327.2 777.95,327.91 777.4,328.86 777.21,329.94 777.21,329.94 777.4,331.02 777.95,331.97 778.79,332.67 779.82,333.05 780.92,333.05 781.95,332.67 782.79,331.97 783.34,331.02 783.53,329.94"
     style="fill:none;stroke:#000000;stroke-width:0.5"
     id="polyline206"
     transform="translate(-1.394837,-238.08179)" />
  <polyline
     points="777.26,296.29 777.44,295.72 777.92,295.37 778.51,295.37 778.99,295.72 779.18,296.29 779.18,296.29 778.99,296.85 778.51,297.2 777.92,297.2 777.44,296.85 777.26,296.29"
     style="fill:none;stroke:#000000;stroke-width:0.5"
     id="polyline208"
     transform="translate(-1.394837,-238.08179)" />
  <polyline
     points="780.96,296.29 780.8,295.35 780.32,294.52 779.59,293.91 778.69,293.58 777.74,293.58 776.84,293.91 776.11,294.52 775.64,295.35 775.47,296.29 775.47,296.29 775.64,297.23 776.11,298.05 776.84,298.66 777.74,298.99 778.69,298.99 779.59,298.66 780.32,298.05 780.8,297.23 780.96,296.29"
     style="fill:none;stroke:#000000;stroke-width:0.5"
     id="polyline210"
     transform="translate(-1.394837,-238.08179)" />
  <polyline
     points="780.37,310.81 780.37,316.46 780.37,316.46 778.94,317.14 777.43,317.6 777.43,317.6 776.7,317.71 775.99,317.52 775.41,317.05 775.08,316.4 775.08,316.4 775.06,315.65 775.22,314.92 775.22,314.92 775.75,313.7 776.61,312.69 776.61,312.69 777.76,311.87 779.02,311.24 780.37,310.81"
     style="fill:none;stroke:#000000;stroke-width:0.5"
     id="polyline212"
     transform="translate(-1.394837,-238.08179)" />
  <polyline
     points="784.49,305.15 783.99,303.69 783.15,302.4 782.03,301.35 780.68,300.6 779.19,300.2 777.65,300.17 776.15,300.52 774.78,301.22 773.62,302.23 772.73,303.49 772.18,304.93 771.99,306.46 776.11,306.46 776.11,306.46 776.29,305.6 776.77,304.89 777.5,304.41 778.36,304.26 779.21,304.45 779.91,304.95 780.37,305.69 780.37,308.53 780.37,308.53 778.27,308.82 776.25,309.5 774.4,310.54 772.77,311.89 771.41,313.53 771.41,313.53 771,314.82 770.9,316.18 771.11,317.52 771.63,318.78 772.41,319.88 772.41,319.88 773.2,320.36 774.07,320.65 774.98,320.74 774.98,320.74 776.85,320.6 778.67,320.14 780.37,319.36 780.37,320.6 784.49,320.6 784.49,305.15"
     style="fill:none;stroke:#000000;stroke-width:0.5"
     id="polyline214"
     transform="translate(-1.394837,-238.08179)" />
  <polyline
     points="723.52,331.04 723.35,330.2 722.88,329.48 722.17,329.01 721.32,328.84 720.48,329.01 719.77,329.48 719.29,330.2 719.13,331.04 719.13,331.04 719.29,331.88 719.77,332.59 720.48,333.07 721.32,333.23 722.17,333.07 722.88,332.59 723.35,331.88 723.52,331.04"
     style="fill:none;stroke:#000000;stroke-width:0.5"
     id="polyline216"
     transform="translate(-1.394837,-238.08179)" />
  <polyline
     points="731.76,331.04 731.59,330.2 731.12,329.48 730.4,329.01 729.56,328.84 728.72,329.01 728.01,329.48 727.53,330.2 727.37,331.04 727.37,331.04 727.53,331.88 728.01,332.59 728.72,333.07 729.56,333.23 730.4,333.07 731.12,332.59 731.59,331.88 731.76,331.04"
     style="fill:none;stroke:#000000;stroke-width:0.5"
     id="polyline218"
     transform="translate(-1.394837,-238.08179)" />
  <polyline
     points="725.44,342.52 728.43,353.01 722.46,353.01 725.44,342.52"
     style="fill:none;stroke:#000000;stroke-width:0.5"
     id="polyline220"
     transform="translate(-1.394837,-238.08179)" />
  <polyline
     points="727.78,334.33 723.11,334.33 715.83,361.8 719.95,361.8 721.28,357.13 729.61,357.13 730.94,361.8 735.06,361.8 727.78,334.33"
     style="fill:none;stroke:#000000;stroke-width:0.5"
     id="polyline222"
     transform="translate(-1.394837,-238.08179)" />
  <polyline
     points="724.89,293.14 729.01,293.14 729.01,297.26 724.89,297.26 724.89,293.14"
     style="fill:none;stroke:#000000;stroke-width:0.5"
     id="polyline224"
     transform="translate(-1.394837,-238.08179)" />
  <polyline
     points="717.48,293.14 721.6,293.14 721.6,297.26 717.48,297.26 717.48,293.14"
     style="fill:none;stroke:#000000;stroke-width:0.5"
     id="polyline226"
     transform="translate(-1.394837,-238.08179)" />
  <polyline
     points="725.44,310.81 725.44,316.46 725.44,316.46 724.02,317.14 722.5,317.6 722.5,317.6 721.77,317.71 721.06,317.52 720.49,317.05 720.15,316.4 720.15,316.4 720.13,315.65 720.29,314.92 720.29,314.92 720.82,313.7 721.68,312.69 721.68,312.69 722.83,311.87 724.1,311.24 725.44,310.81"
     style="fill:none;stroke:#000000;stroke-width:0.5"
     id="polyline228"
     transform="translate(-1.394837,-238.08179)" />
  <polyline
     points="729.56,305.15 729.06,303.69 728.23,302.4 727.1,301.35 725.75,300.6 724.27,300.2 722.73,300.17 721.23,300.52 719.85,301.22 718.69,302.23 717.81,303.49 717.26,304.93 717.07,306.46 721.19,306.46 721.19,306.46 721.36,305.6 721.85,304.89 722.58,304.41 723.43,304.26 724.28,304.45 724.99,304.95 725.44,305.69 725.44,308.53 725.44,308.53 723.34,308.82 721.33,309.5 719.47,310.54 717.84,311.89 716.48,313.53 716.48,313.53 716.07,314.82 715.97,316.18 716.19,317.52 716.7,318.78 717.49,319.88 717.49,319.88 718.27,320.36 719.14,320.65 720.06,320.74 720.06,320.74 721.92,320.6 723.74,320.14 725.44,319.36 725.44,320.6 729.56,320.6 729.56,305.15"
     style="fill:none;stroke:#000000;stroke-width:0.5"
     id="polyline230"
     transform="translate(-1.394837,-238.08179)" />
  <polyline
     points="11.39,342.52 14.38,353.01 8.4,353.01 11.39,342.52"
     style="fill:none;stroke:#000000;stroke-width:0.5"
     id="polyline232"
     transform="translate(-1.394837,-238.08179)" />
  <polyline
     points="13.72,334.33 9.06,334.33 1.78,361.8 5.9,361.8 7.23,357.13 15.55,357.13 16.88,361.8 21,361.8 13.72,334.33"
     style="fill:none;stroke:#000000;stroke-width:0.5"
     id="polyline234"
     transform="translate(-1.394837,-238.08179)" />
  <polyline
     points="11.39,310.81 11.39,316.46 11.39,316.46 9.96,317.14 8.45,317.6 8.45,317.6 7.72,317.71 7,317.52 6.43,317.05 6.1,316.4 6.1,316.4 6.08,315.65 6.24,314.92 6.24,314.92 6.77,313.7 7.63,312.69 7.63,312.69 8.78,311.87 10.04,311.24 11.39,310.81"
     style="fill:none;stroke:#000000;stroke-width:0.5"
     id="polyline236"
     transform="translate(-1.394837,-238.08179)" />
  <polyline
     points="15.51,305.15 15.01,303.69 14.17,302.4 13.04,301.35 11.7,300.6 10.21,300.2 8.67,300.17 7.17,300.52 5.8,301.22 4.64,302.23 3.75,303.49 3.2,304.93 3.01,306.46 7.13,306.46 7.13,306.46 7.3,305.6 7.79,304.89 8.52,304.41 9.38,304.26 10.22,304.45 10.93,304.95 11.39,305.69 11.39,308.53 11.39,308.53 9.29,308.82 7.27,309.5 5.42,310.54 3.78,311.89 2.43,313.53 2.43,313.53 2.02,314.82 1.92,316.18 2.13,317.52 2.64,318.78 3.43,319.88 3.43,319.88 4.21,320.36 5.09,320.65 6,320.74 6,320.74 7.87,320.6 9.68,320.14 11.39,319.36 11.39,320.6 15.51,320.6 15.51,305.15"
     style="fill:none;stroke:#000000;stroke-width:0.5"
     id="polyline238"
     transform="translate(-1.394837,-238.08179)" />
  <polyline
     points="33.36,345.32 38.72,345.32 38.72,345.32 39.61,345.18 40.41,344.77 41.05,344.13 41.46,343.32 41.6,342.43 41.6,341.33 41.6,341.33 41.46,340.44 41.05,339.64 40.41,339 39.61,338.59 38.72,338.45 33.36,338.45 33.36,345.32"
     style="fill:none;stroke:#000000;stroke-width:0.5"
     id="polyline240"
     transform="translate(-1.394837,-238.08179)" />
  <polyline
     points="29.24,334.33 29.24,361.8 33.36,361.8 39.68,361.8 39.68,361.8 41.33,361.61 42.89,361.06 44.3,360.18 45.47,359 46.36,357.6 46.91,356.03 47.09,354.38 47.09,352.73 47.09,352.73 46.9,351.04 46.32,349.44 45.39,348.01 44.17,346.83 44.17,346.83 45.01,345.5 45.54,344 45.72,342.43 45.72,341.33 45.72,341.33 45.54,339.78 45.03,338.3 44.19,336.97 43.08,335.86 41.75,335.03 40.27,334.51 38.72,334.33 29.24,334.33"
     style="fill:none;stroke:#000000;stroke-width:0.5"
     id="polyline242"
     transform="translate(-1.394837,-238.08179)" />
  <polyline
     points="33.36,349.44 39.68,349.44 39.68,349.44 40.7,349.6 41.61,350.07 42.34,350.8 42.81,351.71 42.97,352.73 42.97,354.38 42.97,354.38 42.81,355.4 42.34,356.32 41.61,357.05 40.7,357.51 39.68,357.68 33.36,357.68 33.36,349.44"
     style="fill:none;stroke:#000000;stroke-width:0.5"
     id="polyline244"
     transform="translate(-1.394837,-238.08179)" />
  <polyline
     points="42.97,305.08 42.96,316.38 42.96,316.38 42.51,317.7 41.73,318.86 40.67,319.77 39.41,320.36 38.03,320.6 38.03,320.6 36.4,320.28 34.84,319.73 33.36,318.98 33.36,320.6 29.24,320.6 29.24,293.14 33.36,293.14 33.36,301.65 33.36,301.65 34.83,300.88 36.4,300.32 38.03,300 38.03,300 39.31,300.17 40.5,300.66 41.52,301.45 42.31,302.47 42.8,303.67 42.97,304.95 42.97,305.08"
     style="fill:none;stroke:#000000;stroke-width:0.5"
     id="polyline246"
     transform="translate(-1.394837,-238.08179)" />
  <polyline
     points="33.36,306.04 33.36,314.56 33.36,314.56 33.53,315.5 34,316.32 34.73,316.94 35.63,317.26 36.58,317.26 37.48,316.94 38.21,316.32 38.69,315.5 38.85,314.56 38.85,306.04 38.85,306.04 38.69,305.1 38.21,304.28 37.48,303.67 36.58,303.34 35.63,303.34 34.73,303.67 34,304.28 33.53,305.1 33.36,306.04"
     style="fill:none;stroke:#000000;stroke-width:0.5"
     id="polyline248"
     transform="translate(-1.394837,-238.08179)" />
  <polyline
     points="56.7,343.26 56.7,352.87 56.7,352.87 56.88,354.65 57.42,356.36 58.28,357.94 59.44,359.3 60.85,360.41 62.45,361.21 64.18,361.68 65.97,361.79 67.75,361.54 69.44,360.94 70.97,360.02 72.3,358.81 73.35,357.35 74.09,355.72 74.49,353.97 74.53,352.18 70.39,352.18 70.39,352.18 70.4,353.49 70.05,354.76 69.37,355.88 68.42,356.78 67.26,357.39 65.97,357.66 64.67,357.58 63.43,357.14 62.36,356.39 61.53,355.37 61,354.17 60.82,352.87 60.82,343.26 60.82,343.26 61.02,341.9 61.59,340.66 62.48,339.63 63.63,338.89 64.95,338.5 66.31,338.5 67.63,338.89 68.78,339.63 69.67,340.66 70.24,341.9 70.44,343.26 74.56,343.26 74.56,343.26 74.36,341.4 73.78,339.63 72.85,338.01 71.6,336.62 70.09,335.53 68.39,334.77 66.56,334.38 64.7,334.38 62.87,334.77 61.17,335.53 59.66,336.62 58.41,338.01 57.48,339.63 56.9,341.4 56.7,343.26"
     style="fill:none;stroke:#000000;stroke-width:0.5"
     id="polyline250"
     transform="translate(-1.394837,-238.08179)" />
  <polyline
     points="56.75,306.87 56.75,313.73 56.75,313.73 56.92,315.28 57.44,316.75 58.28,318.06 59.39,319.15 60.72,319.96 62.2,320.45 63.75,320.6 65.29,320.39 66.75,319.84 68.05,318.98 69.11,317.84 69.9,316.5 70.36,315.01 70.47,313.46 66.35,313.46 66.35,313.46 66.27,314.44 65.85,315.33 65.14,316.02 64.24,316.41 63.26,316.46 62.32,316.16 61.55,315.55 61.04,314.7 60.87,313.73 60.87,306.87 60.87,306.87 61.04,305.9 61.55,305.06 62.32,304.45 63.26,304.14 64.24,304.19 65.14,304.59 65.85,305.27 66.27,306.16 66.35,307.14 70.47,307.14 70.47,307.14 70.36,305.59 69.9,304.1 69.11,302.76 68.05,301.62 66.75,300.76 65.29,300.21 63.75,300 62.2,300.15 60.72,300.64 59.39,301.45 58.28,302.54 57.44,303.85 56.92,305.32 56.75,306.87"
     style="fill:none;stroke:#000000;stroke-width:0.5"
     id="polyline252"
     transform="translate(-1.394837,-238.08179)" />
  <polyline
     points="88.29,357.68 93.78,357.68 93.78,357.68 94.85,357.54 95.84,357.12 96.69,356.47 97.35,355.62 97.76,354.62 97.9,353.56 97.9,342.57 97.9,342.57 97.76,341.5 97.35,340.51 96.69,339.66 95.84,339 94.85,338.59 93.78,338.45 88.29,338.45 88.29,357.68"
     style="fill:none;stroke:#000000;stroke-width:0.5"
     id="polyline254"
     transform="translate(-1.394837,-238.08179)" />
  <polyline
     points="84.17,361.8 93.78,361.8 93.78,361.8 95.39,361.64 96.93,361.17 98.36,360.41 99.61,359.38 100.63,358.13 101.39,356.71 101.86,355.16 102.02,353.56 102.02,342.57 102.02,342.57 101.86,340.96 101.39,339.42 100.63,337.99 99.61,336.74 98.36,335.72 96.93,334.96 95.39,334.49 93.78,334.33 84.17,334.33 84.17,361.8"
     style="fill:none;stroke:#000000;stroke-width:0.5"
     id="polyline256"
     transform="translate(-1.394837,-238.08179)" />
  <polyline
     points="93.78,314.83 93.61,315.77 93.14,316.6 92.41,317.21 91.51,317.54 90.56,317.54 89.66,317.21 88.93,316.6 88.45,315.77 88.29,314.83 88.29,306.04 88.29,306.04 88.45,305.1 88.93,304.28 89.66,303.67 90.56,303.34 91.51,303.34 92.41,303.67 93.14,304.28 93.61,305.1 93.78,306.04 93.78,314.83"
     style="fill:none;stroke:#000000;stroke-width:0.5"
     id="polyline258"
     transform="translate(-1.394837,-238.08179)" />
  <polyline
     points="97.9,293.14 93.78,293.14 93.78,301.56 93.78,301.56 92.52,300.97 90.91,300.34 90.91,300.34 89.57,300.02 88.21,300.09 86.91,300.52 85.78,301.29 84.91,302.34 84.36,303.59 84.17,304.95 84.17,315.66 84.17,315.66 84.33,316.92 84.81,318.1 85.58,319.11 86.57,319.9 87.74,320.41 89,320.6 89,320.6 90.66,320.44 92.26,320 93.78,319.32 93.78,320.6 97.9,320.6 97.9,293.14"
     style="fill:none;stroke:#000000;stroke-width:0.5"
     id="polyline260"
     transform="translate(-1.394837,-238.08179)" />
  <polyline
     points="111.63,361.8 126.74,361.8 126.74,357.68 115.75,357.68 115.75,349.44 123.17,349.44 123.17,345.32 115.75,345.32 115.75,338.45 126.74,338.45 126.74,334.33 111.63,334.33 111.63,361.8"
     style="fill:none;stroke:#000000;stroke-width:0.5"
     id="polyline262"
     transform="translate(-1.394837,-238.08179)" />
  <polyline
     points="121.21,307.15 121.07,307.15 115.87,307.15 115.74,307.15 115.74,307.15 115.83,306.14 116.28,305.23 117.03,304.55 117.97,304.18 118.98,304.18 119.93,304.55 120.68,305.23 121.12,306.14 121.21,307.15"
     style="fill:none;stroke:#000000;stroke-width:0.5"
     id="polyline264"
     transform="translate(-1.394837,-238.08179)" />
  <polyline
     points="111.61,306.88 111.61,313.74 111.61,313.74 111.78,315.27 112.29,316.72 113.11,318.02 114.2,319.11 115.5,319.93 116.95,320.44 118.48,320.61 120,320.44 121.46,319.93 122.76,319.11 123.85,318.02 124.66,316.72 125.17,315.27 125.34,313.74 121.22,313.74 121.22,313.74 121.06,314.68 120.58,315.51 119.85,316.12 118.95,316.45 118,316.45 117.1,316.12 116.37,315.51 115.89,314.68 115.73,313.74 115.74,310.72 115.87,310.72 125.34,310.72 125.34,306.88 125.34,306.88 125.17,305.35 124.66,303.9 123.85,302.6 122.76,301.51 121.46,300.69 120,300.18 118.48,300.01 116.95,300.18 115.5,300.69 114.2,301.51 113.11,302.6 112.29,303.9 111.78,305.35 111.61,306.88"
     style="fill:none;stroke:#000000;stroke-width:0.5"
     id="polyline266"
     transform="translate(-1.394837,-238.08179)" />
  <polyline
     points="139.1,334.33 154.2,334.33 154.2,338.45 143.21,338.45 143.21,345.32 150.63,345.32 150.63,349.44 143.21,349.44 143.21,361.8 139.1,361.8 139.1,334.33"
     style="fill:none;stroke:#000000;stroke-width:0.5"
     id="polyline268"
     transform="translate(-1.394837,-238.08179)" />
  <polyline
     points="147.88,300.27 145.53,300.27 145.41,300.27 145.41,300.27 145.46,299.41 145.77,298.61 146.32,297.94 147.05,297.48 147.88,297.26 147.88,293.13 147.88,293.13 146.4,293.35 145,293.89 143.75,294.72 142.71,295.8 141.93,297.08 141.44,298.5 141.28,299.99 141.28,300.27 139.1,300.27 139.1,303.84 141.28,303.84 141.28,320.6 145.4,320.6 145.4,303.84 145.53,303.84 147.88,303.84 147.88,300.27"
     style="fill:none;stroke:#000000;stroke-width:0.5"
     id="polyline270"
     transform="translate(-1.394837,-238.08179)" />
  <polyline
     points="166.56,343.26 166.56,352.87 166.56,352.87 166.73,354.62 167.25,356.31 168.09,357.86 169.21,359.22 170.58,360.33 172.14,361.15 173.84,361.64 175.59,361.79 177.34,361.6 179.02,361.06 180.57,360.21 181.66,361.8 184.41,361.8 184.41,346.69 175.48,346.69 175.48,350.81 180.28,350.81 180.28,352.58 180.28,352.58 180.19,353.86 179.76,355.06 179.03,356.11 178.05,356.93 176.89,357.47 175.63,357.67 174.36,357.54 173.17,357.08 172.14,356.32 171.35,355.31 170.85,354.14 170.68,352.87 170.68,343.26 170.68,343.26 170.87,341.9 171.44,340.66 172.34,339.63 173.49,338.89 174.8,338.5 176.17,338.5 177.48,338.89 178.63,339.63 179.53,340.66 180.1,341.9 180.29,343.26 184.41,343.26 184.41,343.26 184.22,341.4 183.64,339.63 182.71,338.01 181.46,336.62 179.95,335.53 178.24,334.77 176.42,334.38 174.55,334.38 172.73,334.77 171.02,335.53 169.51,336.62 168.26,338.01 167.33,339.63 166.75,341.4 166.56,343.26"
     style="fill:none;stroke:#000000;stroke-width:0.5"
     id="polyline272"
     transform="translate(-1.394837,-238.08179)" />
  <polyline
     points="176.17,314.83 176.01,315.77 175.53,316.6 174.8,317.21 173.9,317.54 172.95,317.54 172.05,317.21 171.32,316.6 170.84,315.77 170.68,314.83 170.68,306.18 170.68,306.18 170.84,305.24 171.32,304.42 172.05,303.8 172.95,303.48 173.9,303.48 174.8,303.8 175.53,304.42 176.01,305.24 176.17,306.18 176.17,314.83"
     style="fill:none;stroke:#000000;stroke-width:0.5"
     id="polyline274"
     transform="translate(-1.394837,-238.08179)" />
  <polyline
     points="180.29,300 176.17,300 176.17,301.38 176.17,301.38 174.7,300.67 173.13,300.21 171.5,300 171.5,300 170.22,300.17 169.03,300.66 168.01,301.45 167.22,302.47 166.73,303.67 166.56,304.95 166.56,315.66 166.56,315.66 166.73,316.93 167.22,318.12 168,319.14 169.01,319.93 170.2,320.43 171.48,320.6 171.48,320.6 173.09,320.53 174.68,320.2 176.19,319.62 176.19,319.62 175.79,320.42 175.16,321.05 174.36,321.44 173.48,321.56 172.6,321.39 171.53,325.37 171.53,325.37 173.14,325.67 174.77,325.57 176.34,325.1 177.74,324.26 178.91,323.12 179.78,321.73 180.29,320.18 180.29,300"
     style="fill:none;stroke:#000000;stroke-width:0.5"
     id="polyline276"
     transform="translate(-1.394837,-238.08179)" />
  <polyline
     points="207.75,361.8 207.75,349.44 198.14,349.44 198.14,361.8 194.02,361.8 194.02,334.33 198.14,334.33 198.14,345.32 207.75,345.32 207.75,334.33 211.87,334.33 211.87,361.8 207.75,361.8"
     style="fill:none;stroke:#000000;stroke-width:0.5"
     id="polyline278"
     transform="translate(-1.394837,-238.08179)" />
  <polyline
     points="207.65,303.28 207.07,302.21 206.26,301.3 205.26,300.61 204.13,300.17 202.92,300 202.92,300 201.27,300.16 199.66,300.58 198.14,301.25 198.14,293.14 194.02,293.14 194.02,320.6 198.14,320.6 198.14,306.04 198.14,306.04 198.31,305.1 198.78,304.28 199.52,303.67 200.41,303.34 201.37,303.34 202.26,303.67 202.99,304.28 203.47,305.1 203.63,306.04 203.63,320.6 207.75,320.6 207.75,303.69 207.75,303.69 207.65,303.28"
     style="fill:none;stroke:#000000;stroke-width:0.5"
     id="polyline280"
     transform="translate(-1.394837,-238.08179)" />
  <polyline
     points="221.49,361.8 221.49,334.33 225.61,334.33 225.61,361.8 221.49,361.8"
     style="fill:none;stroke:#000000;stroke-width:0.5"
     id="polyline282"
     transform="translate(-1.394837,-238.08179)" />
  <polyline
     points="221.49,320.6 221.49,300 225.61,300 225.61,320.6 221.49,320.6"
     style="fill:none;stroke:#000000;stroke-width:0.5"
     id="polyline284"
     transform="translate(-1.394837,-238.08179)" />
  <polyline
     points="221.49,293.14 225.61,293.14 225.61,297.26 221.49,297.26 221.49,293.14"
     style="fill:none;stroke:#000000;stroke-width:0.5"
     id="polyline286"
     transform="translate(-1.394837,-238.08179)" />
  <polyline
     points="253.07,354.24 248.95,354.24 248.95,354.24 249.14,355.92 249.7,357.52 250.6,358.95 251.79,360.15 253.23,361.05 254.82,361.61 256.5,361.8 258.18,361.61 259.78,361.05 261.21,360.15 262.41,358.95 263.31,357.52 263.87,355.92 264.05,354.24 264.05,334.33 259.94,334.33 259.94,354.24 259.94,354.24 259.77,355.3 259.28,356.26 258.52,357.02 257.56,357.51 256.5,357.68 255.44,357.51 254.48,357.02 253.73,356.26 253.24,355.3 253.07,354.24"
     style="fill:none;stroke:#000000;stroke-width:0.5"
     id="polyline288"
     transform="translate(-1.394837,-238.08179)" />
  <polyline
     points="255.54,300 251.42,300 251.42,320.6 251.42,320.6 251.29,321.28 250.9,321.86 250.33,322.25 249.65,322.38 248.95,326.46 248.95,326.46 250.37,326.46 251.75,326.11 253,325.45 254.06,324.51 254.87,323.34 255.37,322.01 255.54,320.6 255.54,300"
     style="fill:none;stroke:#000000;stroke-width:0.5"
     id="polyline290"
     transform="translate(-1.394837,-238.08179)" />
  <polyline
     points="255.54,293.14 251.42,293.14 251.42,297.26 255.54,297.26 255.54,293.14"
     style="fill:none;stroke:#000000;stroke-width:0.5"
     id="polyline292"
     transform="translate(-1.394837,-238.08179)" />
  <polyline
     points="280.53,354.93 280.53,361.8 276.41,361.8 276.41,334.33 280.53,334.33 280.53,347.51 289.32,334.33 294.26,334.33 286.44,346 294.26,361.8 289.6,361.8 283.83,349.99 280.53,354.93"
     style="fill:none;stroke:#000000;stroke-width:0.5"
     id="polyline294"
     transform="translate(-1.394837,-238.08179)" />
  <polyline
     points="290.15,300.31 285.23,300.31 280.97,306.86 280.53,307.54 280.53,293.14 276.41,293.14 276.41,320.6 280.53,320.6 280.53,315.11 282.69,311.78 285.78,320.6 290.15,320.6 285.53,307.41 290.15,300.31"
     style="fill:none;stroke:#000000;stroke-width:0.5"
     id="polyline296"
     transform="translate(-1.394837,-238.08179)" />
  <polyline
     points="303.88,361.8 303.88,334.33 308,334.33 308,357.68 317.61,357.68 317.61,361.8 303.88,361.8"
     style="fill:none;stroke:#000000;stroke-width:0.5"
     id="polyline298"
     transform="translate(-1.394837,-238.08179)" />
  <polyline
     points="303.88,320.6 303.88,293.14 308,293.14 308,320.6 303.88,320.6"
     style="fill:none;stroke:#000000;stroke-width:0.5"
     id="polyline300"
     transform="translate(-1.394837,-238.08179)" />
  <polyline
     points="342.33,361.8 349.19,343.94 349.19,361.8 353.31,361.8 353.31,334.33 348.64,334.33 342.33,349.99 336.01,334.33 331.34,334.33 331.34,361.8 335.46,361.8 335.46,343.94 342.33,361.8"
     style="fill:none;stroke:#000000;stroke-width:0.5"
     id="polyline302"
     transform="translate(-1.394837,-238.08179)" />
  <polyline
     points="349.47,300 348.64,300 348.64,300 346.83,300.16 345.07,300.63 343.42,301.41 343.42,301.41 342.36,300.64 341.15,300.16 339.85,300 338.71,300 338.71,300 337.04,300.41 335.46,301.09 335.46,300 331.34,300 331.34,320.6 335.46,320.6 335.46,306.04 335.46,306.04 335.63,305.1 336.1,304.28 336.83,303.67 337.73,303.34 338.68,303.34 339.58,303.67 340.31,304.28 340.79,305.1 340.95,306.04 340.95,320.6 345.07,320.6 345.07,306.04 345.07,306.04 345.24,305.1 345.72,304.28 346.45,303.67 347.34,303.34 348.3,303.34 349.19,303.67 349.92,304.28 350.4,305.1 350.57,306.04 350.57,320.6 354.68,320.6 354.68,305.22 354.68,305.22 354.51,303.87 353.99,302.61 353.16,301.53 352.08,300.7 350.82,300.18 349.47,300"
     style="fill:none;stroke:#000000;stroke-width:0.5"
     id="polyline304"
     transform="translate(-1.394837,-238.08179)" />
  <polyline
     points="358.8,361.8 358.8,334.33 362.92,334.33 372.54,352.87 372.54,334.33 376.66,334.33 376.66,361.8 372.54,361.8 362.92,343.26 362.92,361.8 358.8,361.8"
     style="fill:none;stroke:#000000;stroke-width:0.5"
     id="polyline306"
     transform="translate(-1.394837,-238.08179)" />
  <polyline
     points="367.32,300 366.17,300 366.17,300 364.5,300.41 362.92,301.09 362.92,300 358.8,300 358.8,320.6 362.92,320.6 362.92,306.04 362.92,306.04 363.09,305.1 363.57,304.28 364.3,303.67 365.19,303.34 366.15,303.34 367.04,303.67 367.77,304.28 368.25,305.1 368.42,306.04 368.42,320.6 372.54,320.6 372.54,305.22 372.54,305.22 372.36,303.87 371.84,302.61 371.01,301.53 369.93,300.7 368.67,300.18 367.32,300"
     style="fill:none;stroke:#000000;stroke-width:0.5"
     id="polyline308"
     transform="translate(-1.394837,-238.08179)" />
  <polyline
     points="757.03,352.87 757.03,343.26 757.03,343.26 756.83,341.9 756.26,340.66 755.37,339.63 754.22,338.89 752.91,338.5 751.54,338.5 750.22,338.89 749.07,339.63 748.18,340.66 747.61,341.9 747.42,343.26 747.42,352.87 747.42,352.87 747.61,354.22 748.18,355.47 749.07,356.5 750.22,357.24 751.54,357.63 752.91,357.63 754.22,357.24 755.37,356.5 756.26,355.47 756.83,354.22 757.03,352.87"
     style="fill:none;stroke:#000000;stroke-width:0.5"
     id="polyline310"
     transform="translate(-1.394837,-238.08179)" />
  <polyline
     points="761.15,352.87 761.15,343.26 761.15,343.26 760.95,341.4 760.38,339.63 759.44,338.01 758.19,336.62 756.68,335.53 754.98,334.77 753.15,334.38 751.29,334.38 749.46,334.77 747.76,335.53 746.25,336.62 745,338.01 744.07,339.63 743.49,341.4 743.3,343.26 743.3,352.87 743.3,352.87 743.49,354.73 744.07,356.5 745,358.12 746.25,359.5 747.76,360.6 749.46,361.36 751.29,361.75 753.15,361.75 754.98,361.36 756.68,360.6 758.19,359.5 759.44,358.12 760.38,356.5 760.95,354.73 761.15,352.87"
     style="fill:none;stroke:#000000;stroke-width:0.5"
     id="polyline312"
     transform="translate(-1.394837,-238.08179)" />
  <polyline
     points="745.9,331.04 746.09,330.14 746.63,329.4 747.42,328.95 748.33,328.85 749.2,329.13 749.88,329.74 750.25,330.58 750.25,331.49 749.88,332.33 749.2,332.94 748.33,333.22 747.42,333.13 746.63,332.67 746.09,331.93 745.9,331.04"
     style="fill:none;stroke:#000000;stroke-width:0.5"
     id="polyline314"
     transform="translate(-1.394837,-238.08179)" />
  <polyline
     points="754.14,331.04 754.33,330.14 754.87,329.4 755.66,328.95 756.57,328.85 757.44,329.13 758.12,329.74 758.49,330.58 758.49,331.49 758.12,332.33 757.44,332.94 756.57,333.22 755.66,333.13 754.87,332.67 754.33,331.93 754.14,331.04"
     style="fill:none;stroke:#000000;stroke-width:0.5"
     id="polyline316"
     transform="translate(-1.394837,-238.08179)" />
  <polyline
     points="743.3,313.73 743.47,315.26 743.98,316.71 744.79,318.01 745.88,319.1 747.18,319.92 748.63,320.43 750.16,320.6 751.69,320.43 753.14,319.92 754.44,319.1 755.53,318.01 756.35,316.71 756.86,315.26 757.03,313.73 757.03,306.87 757.03,306.87 756.86,305.34 756.35,303.89 755.53,302.59 754.44,301.5 753.14,300.68 751.69,300.17 750.16,300 748.63,300.17 747.18,300.68 745.88,301.5 744.79,302.59 743.98,303.89 743.47,305.34 743.3,306.87 743.3,313.73"
     style="fill:none;stroke:#000000;stroke-width:0.5"
     id="polyline318"
     transform="translate(-1.394837,-238.08179)" />
  <polyline
     points="751.81,293.14 755.93,293.14 755.93,297.26 751.81,297.26 751.81,293.14"
     style="fill:none;stroke:#000000;stroke-width:0.5"
     id="polyline320"
     transform="translate(-1.394837,-238.08179)" />
  <polyline
     points="747.42,313.73 747.58,314.67 748.06,315.5 748.79,316.11 749.68,316.44 750.64,316.44 751.53,316.11 752.27,315.5 752.74,314.67 752.91,313.73 752.91,306.87 752.91,306.87 752.74,305.93 752.27,305.1 751.53,304.49 750.64,304.16 749.68,304.16 748.79,304.49 748.06,305.1 747.58,305.93 747.42,306.87 747.42,313.73"
     style="fill:none;stroke:#000000;stroke-width:0.5"
     id="polyline322"
     transform="translate(-1.394837,-238.08179)" />
  <polyline
     points="744.39,293.14 748.51,293.14 748.51,297.26 744.39,297.26 744.39,293.14"
     style="fill:none;stroke:#000000;stroke-width:0.5"
     id="polyline324"
     transform="translate(-1.394837,-238.08179)" />
  <polyline
     points="400,352.87 400,343.26 400,343.26 399.81,341.9 399.24,340.66 398.34,339.63 397.19,338.89 395.88,338.5 394.51,338.5 393.2,338.89 392.05,339.63 391.15,340.66 390.58,341.9 390.39,343.26 390.39,352.87 390.39,352.87 390.58,354.22 391.15,355.47 392.05,356.5 393.2,357.24 394.51,357.63 395.88,357.63 397.19,357.24 398.34,356.5 399.24,355.47 399.81,354.22 400,352.87"
     style="fill:none;stroke:#000000;stroke-width:0.5"
     id="polyline326"
     transform="translate(-1.394837,-238.08179)" />
  <polyline
     points="404.12,352.87 404.12,343.26 404.12,343.26 403.92,341.4 403.35,339.63 402.41,338.01 401.17,336.62 399.66,335.53 397.95,334.77 396.13,334.38 394.26,334.38 392.44,334.77 390.73,335.53 389.22,336.62 387.97,338.01 387.04,339.63 386.46,341.4 386.27,343.26 386.27,352.87 386.27,352.87 386.46,354.73 387.04,356.5 387.97,358.12 389.22,359.5 390.73,360.6 392.44,361.36 394.26,361.75 396.13,361.75 397.95,361.36 399.66,360.6 401.17,359.5 402.41,358.12 403.35,356.5 403.92,354.73 404.12,352.87"
     style="fill:none;stroke:#000000;stroke-width:0.5"
     id="polyline328"
     transform="translate(-1.394837,-238.08179)" />
  <polyline
     points="386.27,313.73 386.44,315.26 386.95,316.71 387.77,318.01 388.85,319.1 390.16,319.92 391.61,320.43 393.13,320.6 394.66,320.43 396.11,319.92 397.41,319.1 398.5,318.01 399.32,316.71 399.83,315.26 400,313.73 400,306.87 400,306.87 399.83,305.34 399.32,303.89 398.5,302.59 397.41,301.5 396.11,300.68 394.66,300.17 393.13,300 391.61,300.17 390.16,300.68 388.85,301.5 387.77,302.59 386.95,303.89 386.44,305.34 386.27,306.87 386.27,313.73"
     style="fill:none;stroke:#000000;stroke-width:0.5"
     id="polyline330"
     transform="translate(-1.394837,-238.08179)" />
  <polyline
     points="390.39,313.73 390.55,314.67 391.03,315.5 391.76,316.11 392.66,316.44 393.61,316.44 394.51,316.11 395.24,315.5 395.71,314.67 395.88,313.73 395.88,306.87 395.88,306.87 395.71,305.93 395.24,305.1 394.51,304.49 393.61,304.16 392.66,304.16 391.76,304.49 391.03,305.1 390.55,305.93 390.39,306.87 390.39,313.73"
     style="fill:none;stroke:#000000;stroke-width:0.5"
     id="polyline332"
     transform="translate(-1.394837,-238.08179)" />
  <polyline
     points="417.85,345.32 423.21,345.32 423.21,345.32 424.1,345.18 424.9,344.77 425.54,344.13 425.95,343.32 426.09,342.43 426.09,341.33 426.09,341.33 425.95,340.44 425.54,339.64 424.9,339 424.1,338.59 423.21,338.45 417.85,338.45 417.85,345.32"
     style="fill:none;stroke:#000000;stroke-width:0.5"
     id="polyline334"
     transform="translate(-1.394837,-238.08179)" />
  <polyline
     points="417.85,349.44 423.21,349.44 423.21,349.44 424.77,349.26 426.25,348.74 427.57,347.91 428.68,346.8 429.52,345.47 430.03,343.99 430.21,342.43 430.21,341.33 430.21,341.33 430.03,339.78 429.52,338.3 428.68,336.97 427.57,335.86 426.25,335.03 424.77,334.51 423.21,334.33 413.73,334.33 413.73,361.8 417.85,361.8 417.85,349.44"
     style="fill:none;stroke:#000000;stroke-width:0.5"
     id="polyline336"
     transform="translate(-1.394837,-238.08179)" />
  <polyline
     points="423.34,306.04 423.34,314.7 423.34,314.7 423.18,315.63 422.7,316.46 421.97,317.07 421.07,317.4 420.12,317.4 419.22,317.07 418.49,316.46 418.02,315.63 417.85,314.7 417.85,306.04 417.85,306.04 418.02,305.1 418.49,304.28 419.22,303.67 420.12,303.34 421.07,303.34 421.97,303.67 422.7,304.28 423.18,305.1 423.34,306.04"
     style="fill:none;stroke:#000000;stroke-width:0.5"
     id="polyline338"
     transform="translate(-1.394837,-238.08179)" />
  <polyline
     points="422.63,300 420.98,300.16 419.37,300.59 417.85,301.27 417.85,300 413.73,300 413.73,320.6 413.73,326.09 417.85,326.09 417.85,320.6 417.85,319.34 417.85,319.34 419.37,320.01 420.98,320.44 422.63,320.6 422.63,320.6 423.89,320.41 425.06,319.9 426.06,319.11 426.82,318.1 427.3,316.92 427.46,315.66 427.46,304.95 427.46,304.95 427.3,303.68 426.82,302.51 426.06,301.49 425.06,300.7 423.89,300.2 422.63,300"
     style="fill:none;stroke:#000000;stroke-width:0.5"
     id="polyline340"
     transform="translate(-1.394837,-238.08179)" />
  <polyline
     points="454.93,351.63 454.93,342.02 454.93,342.02 454.73,340.67 454.16,339.42 453.27,338.39 452.12,337.65 450.81,337.26 449.44,337.26 448.12,337.65 446.97,338.39 446.08,339.42 445.51,340.67 445.31,342.02 445.31,351.63 445.31,351.63 445.51,352.99 446.08,354.23 446.97,355.27 448.12,356.01 449.44,356.39 450.81,356.39 452.12,356.01 453.27,355.27 454.16,354.23 454.73,352.99 454.93,351.63"
     style="fill:none;stroke:#000000;stroke-width:0.5"
     id="polyline342"
     transform="translate(-1.394837,-238.08179)" />
  <polyline
     points="459.05,351.63 458.93,353.08 458.58,354.49 458,355.82 457.22,357.04 457.22,357.04 458.44,357.51 459.73,357.68 459.73,361.8 459.73,361.8 458.3,361.62 456.95,361.12 455.77,360.3 454.8,359.23 454.8,359.23 453.26,359.99 451.6,360.44 449.88,360.56 448.17,360.34 446.54,359.81 445.04,358.97 443.73,357.86 442.65,356.52 441.85,354.99 441.36,353.35 441.2,351.63 441.2,342.02 441.2,342.02 441.39,340.17 441.97,338.39 442.9,336.78 444.15,335.39 445.66,334.29 447.36,333.53 449.19,333.14 451.05,333.14 452.88,333.53 454.58,334.29 456.09,335.39 457.34,336.78 458.28,338.39 458.85,340.17 459.05,342.02 459.05,351.63"
     style="fill:none;stroke:#000000;stroke-width:0.5"
     id="polyline344"
     transform="translate(-1.394837,-238.08179)" />
  <polyline
     points="445.31,306.04 445.31,314.7 445.31,314.7 445.48,315.63 445.96,316.46 446.69,317.07 447.58,317.4 448.54,317.4 449.43,317.07 450.17,316.46 450.64,315.63 450.81,314.7 450.81,306.04 450.81,306.04 450.64,305.1 450.17,304.28 449.43,303.67 448.54,303.34 447.58,303.34 446.69,303.67 445.96,304.28 445.48,305.1 445.31,306.04"
     style="fill:none;stroke:#000000;stroke-width:0.5"
     id="polyline346"
     transform="translate(-1.394837,-238.08179)" />
  <polyline
     points="446.03,300 447.68,300.16 449.29,300.59 450.81,301.27 450.81,300 454.93,300 454.93,320.6 454.93,326.09 450.81,326.09 450.81,320.6 450.81,319.34 450.81,319.34 449.29,320.01 447.68,320.44 446.03,320.6 446.03,320.6 444.77,320.41 443.6,319.9 442.6,319.11 441.84,318.1 441.36,316.92 441.2,315.66 441.2,304.95 441.2,304.95 441.36,303.68 441.84,302.51 442.6,301.49 443.6,300.7 444.77,300.2 446.03,300"
     style="fill:none;stroke:#000000;stroke-width:0.5"
     id="polyline348"
     transform="translate(-1.394837,-238.08179)" />
  <polyline
     points="472.78,349.44 472.78,361.8 468.66,361.8 468.66,334.33 478.13,334.33 478.13,334.33 479.69,334.51 481.17,335.03 482.5,335.86 483.61,336.97 484.44,338.3 484.96,339.78 485.14,341.33 485.14,342.43 485.14,342.43 484.99,343.85 484.56,345.21 483.87,346.46 482.93,347.53 481.8,348.4 480.52,349.02 485.14,361.8 480.74,361.8 476.27,349.44 472.78,349.44"
     style="fill:none;stroke:#000000;stroke-width:0.5"
     id="polyline350"
     transform="translate(-1.394837,-238.08179)" />
  <polyline
     points="472.78,345.32 478.13,345.32 478.13,345.32 479.03,345.18 479.83,344.77 480.47,344.13 480.88,343.32 481.02,342.43 481.02,341.33 481.02,341.33 480.88,340.44 480.47,339.64 479.83,339 479.03,338.59 478.13,338.45 472.78,338.45 472.78,345.32"
     style="fill:none;stroke:#000000;stroke-width:0.5"
     id="polyline352"
     transform="translate(-1.394837,-238.08179)" />
  <polyline
     points="472.78,306.32 472.78,320.6 468.66,320.6 468.66,300 472.78,300 472.78,301.1 472.78,301.1 474.27,300.5 475.84,300.13 477.45,300 477.45,304.36 477.45,304.36 476.7,303.83 475.81,303.59 474.9,303.64 474.05,304 473.37,304.61 472.93,305.42 472.78,306.32"
     style="fill:none;stroke:#000000;stroke-width:0.5"
     id="polyline354"
     transform="translate(-1.394837,-238.08179)" />
  <polyline
     points="504.09,338.45 506.01,338.45"
     style="fill:none;stroke:#000000;stroke-width:0.5"
     id="polyline356"
     transform="translate(-1.394837,-238.08179)" />
  <polyline
     points="506.01,334.33 504.09,334.33 504.09,334.33 502.4,334.53 500.81,335.11 499.39,336.05 498.23,337.29 497.39,338.76 496.91,340.39 496.82,342.09 497.13,343.76 497.82,345.31 498.85,346.66 500.16,347.74 501.68,348.48 507.37,350.47 507.37,350.47 508.16,350.85 508.83,351.41 509.35,352.11 509.35,352.11 509.66,352.87 509.73,353.69 509.57,354.5 509.57,354.5 508.94,355.69 508.01,356.65 506.86,357.32 505.56,357.65 504.22,357.6 502.95,357.19 501.84,356.44 500.97,355.42 500.43,354.2 500.24,352.87 496.12,352.87 496.12,352.87 496.29,354.61 496.8,356.29 497.63,357.83 498.74,359.18 500.09,360.29 501.63,361.12 503.31,361.62 505.05,361.8 506.15,361.8 506.15,361.8 507.82,361.61 509.42,361.08 510.87,360.21 512.09,359.06 513.05,357.66 513.68,356.1 513.96,354.44 513.88,352.76 513.44,351.13 512.66,349.63 511.58,348.34 510.25,347.3 508.73,346.58 503.04,344.59 503.04,344.59 502.08,344.05 501.37,343.21 500.98,342.18 500.97,341.08 501.34,340.04 502.05,339.2 503,338.64 504.09,338.45 506.01,338.45 506.01,338.45 506.99,338.61 507.87,339.05 508.56,339.75 509.01,340.63 509.17,341.61 513.29,341.61 513.29,341.61 513.11,339.99 512.57,338.45 511.7,337.07 510.55,335.92 509.17,335.05 507.63,334.51 506.01,334.33"
     style="fill:none;stroke:#000000;stroke-width:0.5"
     id="polyline358"
     transform="translate(-1.394837,-238.08179)" />
  <polyline
     points="503.54,300 502.71,300 502.71,300 501.28,300.19 499.95,300.75 498.8,301.64 497.93,302.79 497.39,304.13 497.22,305.57 497.43,307 498.01,308.33 498.91,309.46 500.07,310.31 504.53,312.75 504.53,312.75 505.2,313.34 505.56,314.17 505.53,315.06 505.13,315.87 505.13,315.87 504.3,316.45 503.33,316.74 502.32,316.68 501.38,316.29 500.63,315.62 500.14,314.73 499.97,313.73 496.12,313.73 496.12,313.73 496.3,315.27 496.81,316.73 497.63,318.03 498.73,319.12 500.04,319.94 501.5,320.44 503.04,320.6 504.57,320.41 506.03,319.89 507.33,319.06 508.41,317.95 509.21,316.63 509.21,316.63 509.54,315.25 509.53,313.82 509.19,312.43 508.54,311.17 507.6,310.09 506.44,309.26 501.99,306.82 501.99,306.82 501.49,306.38 501.23,305.78 501.25,305.12 501.55,304.53 502.07,304.13 502.71,303.98 503.54,303.98 503.54,303.98 504.12,304.1 504.61,304.43 504.93,304.92 505.05,305.49 509.03,305.49 509.03,305.49 508.84,304.07 508.29,302.75 507.42,301.61 506.28,300.74 504.96,300.19 503.54,300"
     style="fill:none;stroke:#000000;stroke-width:0.5"
     id="polyline360"
     transform="translate(-1.394837,-238.08179)" />
  <polyline
     points="523.59,334.33 541.44,334.33 541.44,338.45 534.57,338.45 534.57,361.8 530.45,361.8 530.45,338.45 523.59,338.45 523.59,334.33"
     style="fill:none;stroke:#000000;stroke-width:0.5"
     id="polyline362"
     transform="translate(-1.394837,-238.08179)" />
  <polyline
     points="532.37,300 530.18,300 530.18,293.14 526.06,293.14 526.06,300 523.59,300 523.59,304.12 526.06,304.12 526.06,314.01 526.06,314.01 526.21,315.44 526.68,316.8 527.42,318.03 528.42,319.06 529.61,319.86 530.95,320.38 532.37,320.59 532.37,316.46 532.37,316.46 531.52,316.21 530.81,315.66 530.34,314.89 530.18,314.01 530.18,307.31 530.18,304.12 532.37,304.12 532.37,300"
     style="fill:none;stroke:#000000;stroke-width:0.5"
     id="polyline364"
     transform="translate(-1.394837,-238.08179)" />
  <polyline
     points="551.05,352.87 551.25,354.73 551.82,356.5 552.75,358.12 554,359.5 555.51,360.6 557.22,361.36 559.04,361.75 560.91,361.75 562.73,361.36 564.44,360.6 565.95,359.5 567.2,358.12 568.13,356.5 568.71,354.73 568.9,352.87 568.9,334.33 564.78,334.33 564.78,352.87 564.78,352.87 564.59,354.22 564.02,355.47 563.12,356.5 561.97,357.24 560.66,357.63 559.29,357.63 557.98,357.24 556.83,356.5 555.93,355.47 555.36,354.22 555.17,352.87 555.17,334.33 551.05,334.33 551.05,352.87"
     style="fill:none;stroke:#000000;stroke-width:0.5"
     id="polyline366"
     transform="translate(-1.394837,-238.08179)" />
  <polyline
     points="564.78,300 560.66,300 560.66,314.83 560.66,314.83 560.5,315.77 560.02,316.6 559.29,317.21 558.39,317.54 557.44,317.54 556.54,317.21 555.81,316.6 555.34,315.77 555.17,314.83 555.17,300 551.05,300 551.05,315.66 551.05,315.66 551.21,316.92 551.69,318.1 552.46,319.11 553.46,319.9 554.62,320.41 555.88,320.6 555.88,320.6 557.54,320.44 559.14,320.01 560.66,319.34 560.66,320.6 564.78,320.6 564.78,300"
     style="fill:none;stroke:#000000;stroke-width:0.5"
     id="polyline368"
     transform="translate(-1.394837,-238.08179)" />
  <polyline
     points="578.51,334.33 582.91,334.33 588.13,353.56 593.34,334.33 597.74,334.33 590.19,361.8 586.07,361.8 578.51,334.33"
     style="fill:none;stroke:#000000;stroke-width:0.5"
     id="polyline370"
     transform="translate(-1.394837,-238.08179)" />
  <polyline
     points="633.44,279.4 633.44,238.21"
     style="fill:none;stroke:#c0c0c0;stroke-width:0.5"
     id="polyline372"
     transform="translate(-1.394837,-238.08179)" />
  <polyline
     points="660.9,279.4 660.9,238.21"
     style="fill:none;stroke:#c0c0c0;stroke-width:0.5"
     id="polyline374"
     transform="translate(-1.394837,-238.08179)" />
  <polyline
     points="688.37,279.4 688.37,238.21"
     style="fill:none;stroke:#c0c0c0;stroke-width:0.5"
     id="polyline376"
     transform="translate(-1.394837,-238.08179)" />
  <polyline
     points="715.83,279.4 715.83,238.21"
     style="fill:none;stroke:#c0c0c0;stroke-width:0.5"
     id="polyline378"
     transform="translate(-1.394837,-238.08179)" />
  <polyline
     points="633.44,320.6 633.44,279.4"
     style="fill:none;stroke:#c0c0c0;stroke-width:0.5"
     id="polyline380"
     transform="translate(-1.394837,-238.08179)" />
  <polyline
     points="660.9,320.6 660.9,279.4"
     style="fill:none;stroke:#c0c0c0;stroke-width:0.5"
     id="polyline382"
     transform="translate(-1.394837,-238.08179)" />
  <polyline
     points="688.37,320.6 688.37,279.4"
     style="fill:none;stroke:#c0c0c0;stroke-width:0.5"
     id="polyline384"
     transform="translate(-1.394837,-238.08179)" />
  <polyline
     points="715.83,320.6 715.83,279.4"
     style="fill:none;stroke:#c0c0c0;stroke-width:0.5"
     id="polyline386"
     transform="translate(-1.394837,-238.08179)" />
  <polyline
     points="633.44,361.8 633.44,320.6"
     style="fill:none;stroke:#c0c0c0;stroke-width:0.5"
     id="polyline388"
     transform="translate(-1.394837,-238.08179)" />
  <polyline
     points="660.9,361.8 660.9,320.6"
     style="fill:none;stroke:#c0c0c0;stroke-width:0.5"
     id="polyline390"
     transform="translate(-1.394837,-238.08179)" />
  <polyline
     points="688.37,361.8 688.37,320.6"
     style="fill:none;stroke:#c0c0c0;stroke-width:0.5"
     id="polyline392"
     transform="translate(-1.394837,-238.08179)" />
  <polyline
     points="715.83,361.8 715.83,320.6"
     style="fill:none;stroke:#c0c0c0;stroke-width:0.5"
     id="polyline394"
     transform="translate(-1.394837,-238.08179)" />
  <polyline
     points="578.51,300 584.01,320.6 588.13,320.6 593.62,300 589.5,300 586.07,312.88 582.63,300 578.51,300"
     style="fill:none;stroke:#000000;stroke-width:0.5"
     id="polyline396"
     transform="translate(-1.394837,-238.08179)" />
  <polyline
     points="619.02,345.87 622.18,361.8 626.58,361.8 632.07,334.33 627.67,334.33 624.38,351.36 621.08,334.33 619.02,334.33 616.96,334.33 613.67,351.36 610.37,334.33 605.98,334.33 611.47,361.8 615.86,361.8 619.02,345.87"
     style="fill:none;stroke:#000000;stroke-width:0.5"
     id="polyline398"
     transform="translate(-1.394837,-238.08179)" />
  <polyline
     points="621.08,320.6 618.34,310.3 615.59,320.6 611.47,320.6 605.98,300 610.1,300 613.53,312.88 616.96,300 619.71,300 623.14,312.88 626.58,300 630.69,300 625.2,320.6 621.08,320.6"
     style="fill:none;stroke:#000000;stroke-width:0.5"
     id="polyline400"
     transform="translate(-1.394837,-238.08179)" />
  <polyline
     points="640.03,347.31 633.44,361.8 638.11,361.8 642.37,352.44 646.62,361.8 651.29,361.8 644.7,347.31 650.61,334.33 645.94,334.33 642.37,342.18 638.8,334.33 634.13,334.33 640.03,347.31"
     style="fill:none;stroke:#000000;stroke-width:0.5"
     id="polyline402"
     transform="translate(-1.394837,-238.08179)" />
  <polyline
     points="643.05,309.61 647.86,300 643.74,300 640.99,305.49 638.25,300 634.13,300 638.93,309.61 633.44,320.6 637.56,320.6 640.99,313.73 644.43,320.6 648.55,320.6 643.05,309.61"
     style="fill:none;stroke:#000000;stroke-width:0.5"
     id="polyline404"
     transform="translate(-1.394837,-238.08179)" />
  <polyline
     points="669.83,361.8 671.89,361.8 671.89,350.81 678.76,334.33 674.09,334.33 669.83,344.55 665.57,334.33 660.9,334.33 667.77,350.81 667.77,361.8 669.83,361.8"
     style="fill:none;stroke:#000000;stroke-width:0.5"
     id="polyline406"
     transform="translate(-1.394837,-238.08179)" />
  <polyline
     points="676.01,300 671.75,300 668.46,312.34 665.17,300 660.9,300 665.81,318.41 665.81,318.41 666.31,318.58 666.67,318.96 666.81,319.47 666.7,319.98 666.44,320.52 666.44,320.52 665.92,321.21 665.19,321.67 664.34,321.84 663.04,325.68 663.04,325.68 664.52,325.82 666,325.59 667.39,325.03 668.6,324.16 669.57,323.03 670.26,321.7 670.61,320.25 676.01,300"
     style="fill:none;stroke:#000000;stroke-width:0.5"
     id="polyline408"
     transform="translate(-1.394837,-238.08179)" />
  <polyline
     points="688.37,361.8 688.37,357.68 700.86,338.45 689.05,338.45 689.05,334.33 705.53,334.33 705.53,338.45 693.04,357.68 706.22,357.68 706.22,361.8 688.37,361.8"
     style="fill:none;stroke:#000000;stroke-width:0.5"
     id="polyline410"
     transform="translate(-1.394837,-238.08179)" />
  <polyline
     points="688.37,320.6 688.37,316.48 698.12,304.12 689.05,304.12 689.05,300 702.79,300 702.79,304.12 693.04,316.48 703.47,316.48 703.47,320.6 688.37,320.6"
     style="fill:none;stroke:#000000;stroke-width:0.5"
     id="polyline412"
     transform="translate(-1.394837,-238.08179)" />
  <polyline
     points="303.88,251.94 308,251.94 308,273 303.88,273 303.88,251.94"
     style="fill:none;stroke:#000000;stroke-width:0.5"
     id="polyline414"
     transform="translate(-1.394837,-238.08179)" />
  <polyline
     points="303.88,277.34 304.06,276.51 304.56,275.81 305.3,275.39 306.15,275.3 306.97,275.56 307.6,276.13 307.95,276.92 307.95,277.77 307.6,278.56 306.97,279.13 306.15,279.39 305.3,279.3 304.56,278.88 304.06,278.18 303.88,277.34"
     style="fill:none;stroke:#000000;stroke-width:0.5"
     id="polyline416"
     transform="translate(-1.394837,-238.08179)" />
  <polyline
     points="331.34,270.14 331.52,269.3 332.02,268.6 332.76,268.18 333.62,268.09 334.43,268.35 335.07,268.92 335.42,269.71 335.42,270.56 335.07,271.35 334.43,271.92 333.62,272.18 332.76,272.09 332.02,271.67 331.52,270.97 331.34,270.14"
     style="fill:none;stroke:#000000;stroke-width:0.5"
     id="polyline418"
     transform="translate(-1.394837,-238.08179)" />
  <polyline
     points="331.34,277.34 331.52,276.51 332.02,275.81 332.76,275.39 333.62,275.3 334.43,275.56 335.07,276.13 335.42,276.92 335.42,277.77 335.07,278.56 334.43,279.13 333.62,279.39 332.76,279.3 332.02,278.88 331.52,278.18 331.34,277.34"
     style="fill:none;stroke:#000000;stroke-width:0.5"
     id="polyline420"
     transform="translate(-1.394837,-238.08179)" />
  <polyline
     points="369.79,270.25 369.95,269.22 370.41,268.28 375.18,264.22 375.18,264.22 376,262.74 376.47,261.12 376.58,259.43 376.32,257.76 375.71,256.18 374.77,254.78 373.55,253.61 372.1,252.73 370.5,252.19 368.82,252.01 368.82,252.01 366.94,251.98 365.09,252.34 363.35,253.09 361.82,254.18 360.54,255.57 359.59,257.2 359,258.99 358.8,260.87 362.92,260.87 362.92,260.87 363.07,259.68 363.51,258.56 364.21,257.59 365.13,256.82 366.21,256.31 367.38,256.07 368.58,256.14 368.58,256.14 369.68,256.23 370.7,256.65 371.55,257.35 372.15,258.28 372.45,259.35 372.4,260.45 372.04,261.49 367.42,265.41 367.42,265.41 366.67,266.49 366.12,267.68 365.78,268.94 365.67,270.25 365.67,273 369.79,273 369.79,270.25"
     style="fill:none;stroke:#000000;stroke-width:0.5"
     id="polyline422"
     transform="translate(-1.394837,-238.08179)" />
  <polyline
     points="365.67,277.34 365.85,276.51 366.35,275.81 367.09,275.39 367.95,275.3 368.76,275.56 369.4,276.13 369.74,276.92 369.74,277.77 369.4,278.56 368.76,279.13 367.95,279.39 367.09,279.3 366.35,278.88 365.85,278.18 365.67,277.34"
     style="fill:none;stroke:#000000;stroke-width:0.5"
     id="polyline424"
     transform="translate(-1.394837,-238.08179)" />
  <polyline
     points="386.27,279.4 387.89,276.87 389.18,274.16 390.12,271.3 390.68,268.35 390.87,265.35 390.68,262.35 390.12,259.4 389.18,256.55 387.89,253.83 386.27,251.3 386.27,251.3 388.16,253.17 389.77,255.29 391.05,257.62 391.99,260.1 392.56,262.7 392.75,265.35 392.56,268 391.99,270.6 391.05,273.09 389.77,275.42 388.16,277.54 386.27,279.4"
     style="fill:none;stroke:#000000;stroke-width:0.5"
     id="polyline426"
     transform="translate(-1.394837,-238.08179)" />
  <polyline
     points="441.2,282.84 444.52,278.97 444.52,278.97 445.06,278.34 445.3,277.55 445.22,276.73 444.82,276 444.16,275.5 443.36,275.29 442.54,275.41 441.84,275.85 441.36,276.53 441.2,277.34 441.2,282.84"
     style="fill:none;stroke:#000000;stroke-width:0.5"
     id="polyline428"
     transform="translate(-1.394837,-238.08179)" />
  <polyline
     points="420.21,251.3 418.59,253.83 417.3,256.55 416.36,259.4 415.8,262.35 415.61,265.35 415.8,268.35 416.36,271.3 417.3,274.16 418.59,276.87 420.21,279.4 420.21,279.4 418.32,277.54 416.71,275.42 415.43,273.09 414.49,270.6 413.92,268 413.73,265.35 413.92,262.7 414.49,260.1 415.43,257.62 416.71,255.29 418.32,253.17 420.21,251.3"
     style="fill:none;stroke:#000000;stroke-width:0.5"
     id="polyline430"
     transform="translate(-1.394837,-238.08179)" />
  <polyline
     points="468.66,270.14 468.84,269.3 469.34,268.6 470.08,268.18 470.93,268.09 471.75,268.35 472.39,268.92 472.73,269.71 472.73,270.56 472.39,271.35 471.75,271.92 470.93,272.18 470.08,272.09 469.34,271.67 468.84,270.97 468.66,270.14"
     style="fill:none;stroke:#000000;stroke-width:0.5"
     id="polyline432"
     transform="translate(-1.394837,-238.08179)" />
  <polyline
     points="468.66,282.84 471.98,278.97 471.98,278.97 472.52,278.34 472.77,277.55 472.68,276.73 472.28,276 471.63,275.5 470.82,275.29 470,275.41 469.3,275.85 468.83,276.53 468.66,277.34 468.66,282.84"
     style="fill:none;stroke:#000000;stroke-width:0.5"
     id="polyline434"
     transform="translate(-1.394837,-238.08179)" />
  <polyline
     points="496.12,277.34 496.3,276.51 496.8,275.81 497.55,275.39 498.4,275.3 499.21,275.56 499.85,276.13 500.2,276.92 500.2,277.77 499.85,278.56 499.21,279.13 498.4,279.39 497.55,279.3 496.8,278.88 496.3,278.18 496.12,277.34"
     style="fill:none;stroke:#000000;stroke-width:0.5"
     id="polyline436"
     transform="translate(-1.394837,-238.08179)" />
  <polyline
     points="551.05,267.73 558.6,267.73 558.6,263.61 551.05,263.61 551.05,267.73"
     style="fill:none;stroke:#000000;stroke-width:0.5"
     id="polyline438"
     transform="translate(-1.394837,-238.08179)" />
</svg>
